<svg width="32" height="27" viewBox="0 0 32 27" fill="none" xmlns="http://www.w3.org/2000/svg">
<path d="M4.60539e-06 24.0333L4.60539e-06 4.74694C4.60539e-06 4.62376 0.00947963 4.51006 0.0284297 4.40584C0.0473797 4.30161 0.0947548 4.18791 0.170555 4.06474C0.596931 3.33516 1.21754 2.66243 2.0324 2.04656C2.85672 1.43068 3.82318 0.937979 4.93175 0.568453C6.04981 0.189452 7.26261 -4.80684e-05 8.57016 -4.80684e-05C10.1146 -4.80684e-05 11.5216 0.279465 12.7913 0.838491C14.0704 1.38804 15.07 2.10341 15.7901 2.98458C16.5008 2.10341 17.4909 1.38804 18.7605 0.838491C20.0397 0.279465 21.4562 -4.80684e-05 23.0101 -4.80684e-05C24.3082 -4.80684e-05 25.5115 0.189452 26.6201 0.568453C27.7381 0.937979 28.7093 1.43068 29.5336 2.04656C30.358 2.66243 30.9786 3.33516 31.3955 4.06474C31.4713 4.18791 31.5187 4.30161 31.5376 4.40584C31.5566 4.51006 31.566 4.62376 31.566 4.74694V24.0333C31.566 24.6208 31.405 25.0377 31.0828 25.284C30.7607 25.5304 30.3911 25.6536 29.9742 25.6536C29.7279 25.6536 29.491 25.592 29.2636 25.4688C29.0362 25.3551 28.7899 25.213 28.5246 25.0424C27.7381 24.5118 26.8759 24.0902 25.9379 23.7775C25.0093 23.4743 24.0523 23.3275 23.0669 23.3369C22.0342 23.3464 21.0251 23.5406 20.0397 23.9196C19.0637 24.2986 18.1778 24.8719 17.3819 25.6394C17.0787 25.9236 16.7992 26.1178 16.5434 26.2221C16.297 26.3358 16.046 26.3926 15.7901 26.3926C15.5248 26.3926 15.269 26.3358 15.0227 26.2221C14.7763 26.1178 14.4968 25.9236 14.1841 25.6394C13.3882 24.8719 12.4976 24.2986 11.5122 23.9196C10.5362 23.5406 9.53661 23.3464 8.51331 23.3369C7.51843 23.3275 6.55198 23.4743 5.61396 23.7775C4.6854 24.0902 3.82791 24.5118 3.04149 25.0424C2.77619 25.213 2.52984 25.3551 2.30243 25.4688C2.07503 25.592 1.8429 25.6536 1.60602 25.6536C1.17964 25.6536 0.805381 25.5304 0.483231 25.284C0.16108 25.0377 4.60539e-06 24.6208 4.60539e-06 24.0333ZM2.28822 22.8253C3.03675 22.2852 3.96056 21.8541 5.05967 21.5319C6.15877 21.2098 7.32893 21.0487 8.57016 21.0487C9.35659 21.0487 10.1241 21.1387 10.8726 21.3188C11.6211 21.4893 12.3128 21.7262 12.9476 22.0294C13.5919 22.3326 14.1557 22.6784 14.6389 23.0669V5.1591C14.1367 4.2874 13.3361 3.59099 12.237 3.06986C11.1379 2.54873 9.91562 2.28817 8.57016 2.28817C7.68898 2.28817 6.84097 2.40661 6.02612 2.64348C5.22074 2.87088 4.49117 3.19303 3.83739 3.60994C3.18361 4.02684 2.66722 4.5148 2.28822 5.07383L2.28822 22.8253ZM16.9271 23.0669C17.4104 22.6784 17.9741 22.3326 18.6184 22.0294C19.2627 21.7262 19.9544 21.4893 20.6935 21.3188C21.442 21.1387 22.2142 21.0487 23.0101 21.0487C24.2418 21.0487 25.4073 21.2098 26.5064 21.5319C27.6055 21.8541 28.5293 22.2852 29.2778 22.8253V5.07383C28.8988 4.5148 28.3824 4.02684 27.7287 3.60994C27.0749 3.19303 26.3406 2.87088 25.5257 2.64348C24.7203 2.40661 23.8818 2.28817 23.0101 2.28817C21.6552 2.28817 20.4282 2.54873 19.329 3.06986C18.2299 3.59099 17.4293 4.2874 16.9271 5.1591V23.0669Z" fill="#6B86B2"/>
</svg>
