<svg width="31" height="27" viewBox="0 0 31 27" fill="none" xmlns="http://www.w3.org/2000/svg">
<path d="M1.22348e-05 25.1562L1.22348e-05 1.13704C1.22348e-05 0.833842 0.108975 0.568541 0.3269 0.341141C0.554301 0.11374 0.829077 3.97936e-05 1.15123 3.97936e-05C1.4639 3.97936e-05 1.7292 0.11374 1.94713 0.341141C2.17453 0.568541 2.28823 0.833842 2.28823 1.13704V23.6071C2.28823 23.8724 2.42088 24.005 2.68618 24.005H29.4057C29.7184 24.005 29.9885 24.114 30.2159 24.3319C30.4433 24.5593 30.557 24.8293 30.557 25.142C30.557 25.4642 30.4433 25.7342 30.2159 25.9521C29.9885 26.1701 29.7184 26.279 29.4057 26.279H1.13701C0.795914 26.279 0.521138 26.1748 0.312688 25.9663C0.104237 25.7674 1.22348e-05 25.4973 1.22348e-05 25.1562ZM2.10347 17.4957L0.369538 15.776L6.72254 9.33767C7.04469 9.00605 7.3621 8.76917 7.67478 8.62705C7.98746 8.47545 8.30961 8.39965 8.64123 8.39965C8.97286 8.39965 9.29501 8.47545 9.60768 8.62705C9.92984 8.77865 10.2472 9.01552 10.5599 9.33767L15.7901 14.6958C15.9228 14.8284 16.0507 14.8948 16.1739 14.8948C16.3065 14.8948 16.4392 14.8284 16.5718 14.6958L22.1716 9.025L19.8265 6.67993C19.6559 6.50938 19.5707 6.33409 19.5707 6.15407C19.5707 5.96457 19.637 5.79402 19.7696 5.64242C19.9118 5.49082 20.106 5.38185 20.3524 5.31553L28.6667 3.22628C28.8751 3.16943 29.0694 3.18365 29.2494 3.26892C29.4294 3.3542 29.5621 3.48685 29.6474 3.66687C29.7421 3.83742 29.7611 4.03166 29.7042 4.24959L27.6008 12.5781C27.5344 12.8245 27.4255 13.0187 27.2739 13.1608C27.1223 13.2935 26.9517 13.3598 26.7622 13.3598C26.5822 13.3598 26.4069 13.2745 26.2363 13.104L23.9055 10.7589L18.1068 16.5861C17.472 17.2114 16.8277 17.5241 16.1739 17.5241C15.8422 17.5241 15.5154 17.4483 15.1932 17.2967C14.8711 17.1451 14.5584 16.9082 14.2552 16.5861L9.02497 11.2279C8.9018 11.0953 8.77388 11.029 8.64123 11.029C8.50858 11.029 8.38067 11.0953 8.25749 11.2279L2.10347 17.4957Z" fill="#6B86B2"/>
</svg>
