<svg width="28" height="42" viewBox="0 0 28 42" fill="none" xmlns="http://www.w3.org/2000/svg">
<path d="M0 20.4492V16.4844C0 16.0807 0.143229 15.7357 0.429688 15.4492C0.716146 15.1628 1.0612 15.0195 1.46484 15.0195C1.88151 15.0195 2.23307 15.1628 2.51953 15.4492C2.80599 15.7357 2.94922 16.0807 2.94922 16.4844V20.332C2.94922 22.5456 3.40495 24.4857 4.31641 26.1523C5.22786 27.819 6.51042 29.1146 8.16406 30.0391C9.81771 30.9505 11.7578 31.4062 13.9844 31.4062C16.2109 31.4062 18.1445 30.9505 19.7852 30.0391C21.4388 29.1146 22.7214 27.819 23.6328 26.1523C24.5443 24.4857 25 22.5456 25 20.332V16.4844C25 16.0807 25.1432 15.7357 25.4297 15.4492C25.7161 15.1628 26.0677 15.0195 26.4844 15.0195C26.888 15.0195 27.2331 15.1628 27.5195 15.4492C27.806 15.7357 27.9492 16.0807 27.9492 16.4844V20.4492C27.9492 23.0013 27.4219 25.2669 26.3672 27.2461C25.3255 29.2253 23.8672 30.8138 21.9922 32.0117C20.1172 33.1966 17.9362 33.8932 15.4492 34.1016V38.6523H22.6953C23.112 38.6523 23.4635 38.7956 23.75 39.082C24.0365 39.3685 24.1797 39.7201 24.1797 40.1367C24.1797 40.5404 24.0365 40.8854 23.75 41.1719C23.4635 41.4583 23.112 41.6016 22.6953 41.6016H5.25391C4.83724 41.6016 4.48568 41.4583 4.19922 41.1719C3.91276 40.8854 3.76953 40.5404 3.76953 40.1367C3.76953 39.7201 3.91276 39.3685 4.19922 39.082C4.48568 38.7956 4.83724 38.6523 5.25391 38.6523H12.5V34.1016C10.013 33.8932 7.83203 33.1966 5.95703 32.0117C4.08203 30.8138 2.61719 29.2253 1.5625 27.2461C0.520833 25.2669 0 23.0013 0 20.4492ZM13.9844 27.207C12.6823 27.207 11.543 26.9076 10.5664 26.3086C9.58984 25.7096 8.82812 24.8828 8.28125 23.8281C7.73438 22.7604 7.46094 21.5299 7.46094 20.1367V7.07031C7.46094 5.67708 7.73438 4.45312 8.28125 3.39844C8.82812 2.33073 9.58984 1.4974 10.5664 0.898438C11.543 0.299479 12.6823 0 13.9844 0C15.2734 0 16.4062 0.299479 17.3828 0.898438C18.3724 1.4974 19.1341 2.33073 19.668 3.39844C20.2148 4.45312 20.4883 5.67708 20.4883 7.07031V20.1367C20.4883 21.5299 20.2148 22.7604 19.668 23.8281C19.1341 24.8828 18.3724 25.7096 17.3828 26.3086C16.4062 26.9076 15.2734 27.207 13.9844 27.207Z" fill="#7362CA"/>
</svg>
