<svg width="24" height="24" viewBox="0 0 24 24" fill="none" xmlns="http://www.w3.org/2000/svg">
<path d="M4.60539e-06 11.7254C4.60539e-06 11.3748 0.12318 11.0763 0.36953 10.83C0.625356 10.5742 0.923819 10.4462 1.26492 10.4462H10.4604V1.26494C10.4604 0.923843 10.5836 0.630117 10.83 0.383766C11.0763 0.127941 11.3748 2.80095e-05 11.7253 2.80095e-05C12.0759 2.80095e-05 12.3744 0.127941 12.6207 0.383766C12.8766 0.630117 13.0045 0.923843 13.0045 1.26494V10.4462H22.1858C22.5269 10.4462 22.8206 10.5742 23.0669 10.83C23.3228 11.0763 23.4507 11.3748 23.4507 11.7254C23.4507 12.0759 23.3228 12.3744 23.0669 12.6208C22.8206 12.8671 22.5269 12.9903 22.1858 12.9903H13.0045V22.1858C13.0045 22.5269 12.8766 22.8206 12.6207 23.067C12.3744 23.3228 12.0759 23.4507 11.7253 23.4507C11.3748 23.4507 11.0763 23.3228 10.83 23.067C10.5836 22.8206 10.4604 22.5269 10.4604 22.1858V12.9903H1.26492C0.923819 12.9903 0.625356 12.8671 0.36953 12.6208C0.12318 12.3744 4.60539e-06 12.0759 4.60539e-06 11.7254Z" fill="white"/>
</svg>
