<svg width="18" height="14" viewBox="0 0 18 14" fill="none" xmlns="http://www.w3.org/2000/svg">
<path d="M8.42188 13.7812C8.23958 13.7812 8.06771 13.7422 7.90625 13.6641C7.74479 13.5859 7.57552 13.4609 7.39844 13.2891L4.07031 10.1328C4.01823 10.0859 3.95312 10.0625 3.875 10.0625H1.63281C1.10677 10.0625 0.703125 9.91927 0.421875 9.63281C0.140625 9.34635 0 8.91927 0 8.35156V5.44531C0 4.88281 0.140625 4.45833 0.421875 4.17188C0.703125 3.88021 1.10677 3.73438 1.63281 3.73438H3.875C3.95312 3.73438 4.01823 3.71094 4.07031 3.66406L7.39844 0.539062C7.60156 0.351562 7.77344 0.216146 7.91406 0.132812C8.0599 0.0442708 8.22396 0 8.40625 0C8.67188 0 8.88802 0.0911458 9.05469 0.273438C9.22135 0.450521 9.30469 0.666667 9.30469 0.921875V12.9062C9.30469 13.1562 9.22135 13.3646 9.05469 13.5312C8.89323 13.6979 8.68229 13.7812 8.42188 13.7812ZM12.0938 10.2109C11.9375 10.1016 11.849 9.96094 11.8281 9.78906C11.8073 9.61719 11.8568 9.44792 11.9766 9.28125C12.2005 8.96354 12.375 8.59896 12.5 8.1875C12.625 7.77083 12.6875 7.33594 12.6875 6.88281C12.6875 6.42969 12.625 5.99479 12.5 5.57812C12.3802 5.16146 12.2057 4.79688 11.9766 4.48438C11.8516 4.32292 11.7995 4.15625 11.8203 3.98438C11.8464 3.80729 11.9375 3.66406 12.0938 3.55469C12.2292 3.46094 12.3776 3.42969 12.5391 3.46094C12.7005 3.49219 12.8333 3.58333 12.9375 3.73438C13.2396 4.13021 13.474 4.60417 13.6406 5.15625C13.8125 5.70833 13.8984 6.28385 13.8984 6.88281C13.8984 7.48177 13.8125 8.05729 13.6406 8.60938C13.474 9.16146 13.2396 9.63542 12.9375 10.0312C12.8333 10.1823 12.7005 10.2734 12.5391 10.3047C12.3776 10.3307 12.2292 10.2995 12.0938 10.2109ZM14.9922 12.25C14.8516 12.151 14.7708 12.0208 14.75 11.8594C14.7292 11.6927 14.7734 11.5286 14.8828 11.3672C15.3047 10.7578 15.6328 10.0677 15.8672 9.29688C16.1068 8.52083 16.2266 7.71615 16.2266 6.88281C16.2266 6.04948 16.1094 5.24479 15.875 4.46875C15.6406 3.69271 15.3099 3.0026 14.8828 2.39844C14.7682 2.23698 14.7214 2.07552 14.7422 1.91406C14.7682 1.7474 14.8516 1.61458 14.9922 1.51562C15.138 1.41667 15.2917 1.38281 15.4531 1.41406C15.6146 1.44531 15.7474 1.53646 15.8516 1.6875C16.3568 2.36458 16.7474 3.15885 17.0234 4.07031C17.2995 4.98177 17.4375 5.91927 17.4375 6.88281C17.4375 7.84635 17.2969 8.78125 17.0156 9.6875C16.7396 10.5938 16.3516 11.3906 15.8516 12.0781C15.7474 12.2292 15.6146 12.3203 15.4531 12.3516C15.2917 12.3776 15.138 12.3438 14.9922 12.25Z" fill="#745DDE"/>
</svg>
