<svg width="16" height="14" viewBox="0 0 16 14" fill="none" xmlns="http://www.w3.org/2000/svg">
<path d="M0.625 1.25781C0.453125 1.25781 0.304688 1.19792 0.179688 1.07812C0.0598958 0.958333 0 0.809896 0 0.632812C0 0.455729 0.0598958 0.307292 0.179688 0.1875C0.304688 0.0625 0.453125 0 0.625 0H15.1016C15.2786 0 15.4297 0.0625 15.5547 0.1875C15.6797 0.307292 15.7422 0.455729 15.7422 0.632812C15.7422 0.809896 15.6797 0.958333 15.5547 1.07812C15.4297 1.19792 15.2786 1.25781 15.1016 1.25781H0.625ZM0.625 5.35156C0.453125 5.35156 0.304688 5.29167 0.179688 5.17188C0.0598958 5.04688 0 4.89583 0 4.71875C0 4.54167 0.0598958 4.39323 0.179688 4.27344C0.304688 4.15365 0.453125 4.09375 0.625 4.09375H9.33594C9.51302 4.09375 9.66146 4.15365 9.78125 4.27344C9.90625 4.39323 9.96875 4.54167 9.96875 4.71875C9.96875 4.89583 9.90625 5.04688 9.78125 5.17188C9.66146 5.29167 9.51302 5.35156 9.33594 5.35156H0.625ZM0.625 9.4375C0.453125 9.4375 0.304688 9.3776 0.179688 9.25781C0.0598958 9.13281 0 8.98438 0 8.8125C0 8.63542 0.0598958 8.48698 0.179688 8.36719C0.304688 8.24219 0.453125 8.17969 0.625 8.17969H15.1016C15.2786 8.17969 15.4297 8.24219 15.5547 8.36719C15.6797 8.48698 15.7422 8.63542 15.7422 8.8125C15.7422 8.98438 15.6797 9.13281 15.5547 9.25781C15.4297 9.3776 15.2786 9.4375 15.1016 9.4375H0.625ZM0.625 13.5234C0.453125 13.5234 0.304688 13.4635 0.179688 13.3438C0.0598958 13.224 0 13.0755 0 12.8984C0 12.7214 0.0598958 12.5703 0.179688 12.4453C0.304688 12.3255 0.453125 12.2656 0.625 12.2656H9.33594C9.51302 12.2656 9.66146 12.3255 9.78125 12.4453C9.90625 12.5703 9.96875 12.7214 9.96875 12.8984C9.96875 13.0755 9.90625 13.224 9.78125 13.3438C9.66146 13.4635 9.51302 13.5234 9.33594 13.5234H0.625Z" fill="#595959"/>
</svg>
